
<svg  viewBox="0 0 204.2 204" style="enable-background:new 0 0 204.2 204;" xml:space="preserve">

	<g i:extraneous="self">
		<g id="Layer_1">
		</g>
		<g id="lideta">
			<polygon id="lideta_1_" style="fill:#3E516D;" points="59.7,82 60.5,80.3 60.5,77.2 64.2,77.2 68,77.2 72.7,79.6 76.2,80.8 
				77.5,77.2 79.5,72 80.5,69 85.5,65.7 87.7,63 87.7,60.5 85.7,57 83.2,54.5 81.7,53.2 78.3,55.3 75.8,57.3 73.7,59.2 67.7,58.7 
				67.5,61.5 66.7,62.7 63,61 60.8,59.8 59,60.2 55.5,60.8 54.3,61.7 56.8,64.7 57.2,66.7 55.7,68.3 55.2,71.5 57.2,72.8 57.8,74.3 
				57.2,77.7 56.2,79.3 56.2,80.5 57,82 			"/>
		</g>
		<g id="kirkos">
			<polygon id="kirkos_2_" style="fill:#D68BB3;stroke:#FFFFFF;stroke-miterlimit:10;" points="76.1,80.6 77.3,77.4 78.7,73.3 
				81.2,68.1 84.7,65.7 87.3,63.1 89.3,62.4 88.6,60.7 91.8,56.3 92.6,59.1 97.8,59.6 99.1,60.6 102,60.9 102.8,62.6 105.1,62.8 
				108.2,64.1 108.2,65.6 106.3,66.9 103.8,68.4 104.3,70.2 106.1,72.2 104.3,73.3 103.3,76.4 103.5,78.2 105.5,79.9 105.7,82.4 
				104.3,85.4 102.6,87.3 100.5,87.3 100.7,89.7 99,90.9 97.3,90.9 96.6,93.1 94.2,91.4 92.1,91.4 86.5,88.8 82.2,86.9 78.8,84.2 
				77.3,82.9 			"/>
		</g>
		<g id="nifas-silk">
			<polygon id="nifas-silk_1_" style="fill:#A175D1;stroke:#FFFFFF;stroke-miterlimit:10;" points="74.6,152.9 80.7,154 81.1,150.2 
				82.6,147.1 82.8,142.7 85.1,135.9 87.6,133.2 89.3,126.9 91.1,122.2 92.1,118.1 92.1,114.9 95.3,108.2 97.1,106.7 101.2,107.7 
				103.3,109.7 104.9,110 104.9,108.5 105.6,107.2 104.8,105 101.6,104.5 99.5,104.5 99.9,98.8 98,96.3 95.6,95.3 95.3,92.5 
				91.4,91.6 82.8,87.4 77.3,83.7 74.6,80.2 69.6,78.8 65.9,76.9 63.8,77.6 60.3,76.9 58.9,81 60.2,83.2 58.8,84.8 58.4,88.6 
				58.2,91.1 58.8,93 54.2,98.2 51.8,98.2 49.8,98.8 45.8,101.8 40.8,104.2 39.8,109.2 33.2,113.7 32.8,117.7 32.1,120.1 
				34.1,122.7 36.8,122.7 42.1,120.2 43.8,123.4 45.1,128.4 48.5,130.8 49.2,135.1 53.5,137.2 60.1,136.2 65.1,140.1 68.5,146.2 
				72,150.6 			"/>
		</g>
		<g id="akaki-kaliti">
			<polygon id="akaki-kaliti_2_" style="fill:#8FD8CE;stroke:#FF0000;stroke-miterlimit:10;" points="81.5,152 80.3,154.8 79,157 
				80.3,158.5 81.5,159.8 83,159.8 83,161.3 83,163.8 82.2,167.7 83.7,170.3 86.2,173 86.2,176 83.8,177.8 83.3,179.5 85.3,181 
				88.5,181 90.7,181.8 92,183 90.2,185.8 89.8,187.7 92,188.8 93.7,187.8 96,187.3 99.2,188.8 102,188.8 103.3,185.8 104.3,186 
				104.3,188.8 106.3,188.8 108.7,189.8 108.7,191.8 108.7,194.3 107.3,198 108.7,199.8 110,202.4 113.3,202.4 116.5,202.4 
				123.5,203.7 127.2,203.7 131.5,200.2 136.5,198.7 140.5,196.8 141.3,194.8 143.3,190.7 144.8,186.8 146.2,182.7 147.2,179 
				147.2,175.5 144.5,172.3 143.2,169.3 147.2,167.8 149.8,167.3 153.7,168.3 157.7,168 161.7,168.3 167.3,167 169.7,166.3 
				173.5,167.5 177.7,169.3 179.2,166.3 180.2,163.5 180.2,158 180.2,151.2 181.8,145.8 185.7,140.3 184.2,137 177,130.7 
				172.2,128.5 168,124.8 165.3,123.5 157.3,121.8 155,120.3 152.2,121.5 149.2,122.7 146.3,123.2 144.5,124.8 140.3,124.8 
				136.7,123.5 136.7,120.3 133.3,119.7 130,119.7 126.2,119.7 124.7,117.8 121.2,120.7 116.5,123 114.3,122.7 113,124.8 
				109.5,124.8 107.7,126.8 104.3,124.8 103.5,121.3 101.3,119.3 101.5,114.7 102.3,113.3 104.3,111.3 101.2,108.8 96.7,107.7 
				95.7,109.2 94.6,111.6 93.2,114.9 92.8,117 92.2,122 90.8,124.8 91,127 90.3,128.3 89.5,131.8 87.8,133.7 86.1,136.2 85.5,139 
				84.3,141.5 83.2,144.7 83.3,147.2 82,149.8 			"/>
		</g>
		<g id="yeka">
			<polygon id="yeka_1_" style="fill:#E2AC71;stroke:#FFFFFF;stroke-miterlimit:10;" points="102,60.7 103.5,62.3 104.3,63 
				105.8,61.8 108.5,64 108.5,66.2 135.3,59.8 139.7,55.3 140.5,59.3 142.3,61.8 146.2,59.7 152.8,59.7 167,60.8 171.8,60.8 
				181.2,59.8 193.2,59 195.3,56.7 195.3,54.3 196.5,51 195.2,48.2 192.8,44.7 188.8,38.5 186.8,37 184.2,36 185.2,25.7 183.5,20.7 
				182.3,15.7 179.5,12.5 172.3,13.3 169.2,15.8 167,18.3 163.7,19.7 159,21.3 151.3,21.2 147.5,19.5 140.8,16.2 133.7,14 130,12.5 
				127.5,13.8 124.8,15.8 122.8,18.5 119.8,16.8 114.2,14.7 112,12.5 108.2,16 104.3,18.2 101.2,18.5 97.5,22 97.5,26.8 98.7,31.3 
				98.5,36.2 100.5,39.3 97.5,41 95.2,42.5 98.5,44.8 104.3,47.2 107.2,47.2 106.8,49.7 108.5,52.3 105.8,54.5 103.5,54.8 
				101.5,54.3 101.7,56.5 98,58.2 98,60 			"/>
		</g>
		<g id="bole">
			<polygon id="bole_1_" style="fill:#A0E59C;stroke:#FFFFFF;stroke-miterlimit:10;" points="103.6,68.2 110.7,65.7 121.3,63 
				126.2,61.8 133,60.7 138.7,57.2 140.3,60.8 142.3,63 146.5,60.2 155.2,60 167.7,61.9 175.3,60.7 188,60.3 192.3,60 195.2,57.8 
				196.7,60 201.7,65.2 203.7,70.3 203.7,76 201.7,76.7 201.2,80 201.2,82.7 202.3,83.8 202.3,86.7 203,90.3 202,93.7 201.2,95.2 
				199.2,95.2 198.5,96.7 199.2,98.3 200.8,99.2 201.5,101.5 199.5,103.8 197.7,105.5 195.5,104.3 194.3,105.5 194.3,108.3 
				193,110.7 191.8,113.3 192,114.7 194,116.8 195.8,116.8 196.5,119.7 193.7,120.5 190.8,121.2 189.8,119.2 187,119.2 181.3,119.2 
				178.8,118.3 179,116.7 177.8,116.8 176.5,115.8 172.7,114 170,113.3 168.2,113.3 163.5,114.3 158.5,117.3 154.8,116.8 151,121.2 
				148.3,121.2 144.8,122.5 142.2,123.5 139.3,123.5 136.5,122.3 138.2,120.2 132.2,118.5 128.2,118.8 124.5,116.5 120.5,118.7 
				118.3,120.8 116.3,122 112.7,122 111.8,124.8 108.5,125.5 106,126 103.6,123.7 104.3,121.8 102.2,118.3 102.2,114.7 104.7,112.2 
				106,108.3 104.8,105 102.2,104.3 100.5,102.8 101.3,99.3 100.5,97.3 97.3,95.5 96,92.8 97.3,91.6 100.7,89.5 100.8,87.2 
				103.6,87.2 106,82.8 105.2,79.3 103.6,76.7 103.6,73.8 105,72.5 103.6,68.2 			"/>
		</g>
		<g id="Kolfe-keraniyo">
			<polygon id="kolfe-keraniyo_1_" style="fill:#C18E8E;stroke:#FFFFFF;stroke-miterlimit:10;" points="0.5,100.3 2.8,101.7 
				4,102.7 6.5,102.7 11.2,105.2 15.7,105.2 22.8,107 29.2,108.8 31.7,108.8 33.2,113.7 36.5,112.2 39.8,109.2 40.8,104.2 45,102.2 
				49,99 51.8,98.2 54.2,98.2 58.8,92.8 57.3,90.8 58.2,88 58.8,84.8 58.8,82.3 55.7,80.7 57,78.3 57.2,75.7 58.8,74.2 55.7,72.2 
				55,68.2 57.8,66.7 56,63.7 54.3,62.2 56.5,61.3 61.2,60.2 60.3,55.7 58.8,54.3 58,52 59.3,48 59.5,41.3 61.2,39.2 61.2,36 
				59.5,34.5 57.8,34.5 56.3,31.5 56.8,27 56,23 53.5,18.2 52,14.8 52.8,12.5 50.8,12.5 40.5,17.8 36.8,20.7 36.8,23.3 37.3,27.2 
				37.5,34 39.3,35 39,37.3 38.5,39.5 38,42.3 34.5,42.8 31.8,45.2 29.5,48.5 26.5,55.7 24.7,59.7 23.5,66 22.8,70.3 19.3,69.3 
				13.8,69.3 10.5,71.7 10.5,74 12.5,76 14.5,76.5 14.8,79.5 16.8,83.3 18.8,85.5 20.8,87.2 16.3,88.2 15.7,94 12.2,94.2 7.5,95.2 
				3.7,96.2 0.5,96.2 			"/>
		</g>
		<g id="addis-ketema">
			<polygon id="addis-ketema_1_" style="fill:#C6B5AC;stroke:#FFFFFF;stroke-miterlimit:10;" points="60.8,35 64.3,37 67.2,39.5 
				68.8,40.8 73.2,40.8 74.2,42.2 76,46.3 77.7,49.7 79.2,49.7 80.7,51.8 80.7,53.8 75.5,56.8 73.7,58.3 68.8,57.5 67.7,58.3 
				67.7,60.5 66.3,62 64.8,61 60.8,59.3 60.8,54.7 58.2,53.2 58.2,50.2 59.5,48.5 60.2,44 60.2,40.7 61,38.8 61.2,37.2 			"/>
		</g>
		<g id="arada">
			<polygon id="arada_1_" style="fill:#FF0000;stroke:#FFFFFF;stroke-miterlimit:10;" points="88.3,60 90.3,58.2 91.3,56 92.2,58 
				94.3,58.7 97.8,58 99.8,56 101.7,56 101.7,53.8 103.7,54.7 107.2,53.8 108.5,51 107,49 107,47 104.5,47 98.4,44.7 95.7,42.7 
				93.7,42.7 90,41.7 88.3,40.2 87,41.3 85.2,40.2 85.2,36.8 84.3,34.2 80.3,34.2 76,36 76,38.2 74.5,39.8 74.5,43 75.8,47.1 
				78,49.2 79.3,48 80.3,49.3 80.3,52.5 82.7,52.7 84.3,54 85.5,56.5 86.5,59.2 			"/>
		</g>
		<g id="gulele">
			<polygon id="gulele_1_" style="fill:#E264C7;stroke:#FFFFFF;stroke-miterlimit:10;" points="60.2,34.2 58.3,35 57.3,32.8 
				56.5,28 56.5,25.2 56.5,21.8 55,19 53.2,15.8 53.2,13.3 56.7,12.2 55.8,10.2 59.3,10.2 60.2,10.7 60.2,9.3 62.5,10.7 64.8,11.8 
				66.5,10.7 71,11 74.2,9.3 77,10.5 79.3,9.3 82,10.5 86.7,6.8 91.2,4.2 96,1.3 101.2,0.5 104.8,1.5 106.8,4 108.2,7.5 109.5,9.3 
				109.5,12 110.8,12.7 110,15.2 105.8,17.8 103.8,19 100.2,18.8 98.5,21 97.3,22.8 96.3,26.7 97,28.8 98.8,31.7 98.2,35 98,36.5 
				99.7,39.2 98,41 95.2,42.7 93.7,42.7 91.2,42.7 89,40.7 87.5,41.2 85.8,41 85.2,37.7 85.5,34.8 82.8,34.7 78.2,35.5 76,36.7 
				75,38.5 74.3,40.2 72.8,40.2 70.7,41 68,39 65,36.8 61.8,35.3 			"/>
		</g>

</svg>
